<?xml version="1.0" standalone="no"?><!DOCTYPE svg PUBLIC "-//W3C//DTD SVG 1.1//EN" "http://www.w3.org/Graphics/SVG/1.1/DTD/svg11.dtd"><svg t="1726922987394" class="icon" viewBox="0 0 1024 1024" version="1.1" xmlns="http://www.w3.org/2000/svg" p-id="5328" xmlns:xlink="http://www.w3.org/1999/xlink" width="200" height="200"><path d="M32 32m128 0l704 0q128 0 128 128l0 704q0 128-128 128l-704 0q-128 0-128-128l0-704q0-128 128-128Z" fill="#E6F7FF" p-id="5329"></path><path d="M674.816 832a63.68 63.68 0 0 1-28.544-7.552l-134.08-69.632-134.848 69.504a59.072 59.072 0 0 1-64.32-4.992 66.304 66.304 0 0 1-24.064-63.36l27.52-148.48-105.728-102.4a69.376 69.376 0 0 1-16.448-65.408l0.256-0.704a62.016 62.016 0 0 1 49.856-44.032l146.944-27.712 65.92-139.072A62.08 62.08 0 0 1 512.192 192c23.68 0 45.184 14.272 55.104 36.544l65.728 138.624 146.944 26.624a60.672 60.672 0 0 1 48.96 44.48c7.296 23.104 1.344 48.512-15.36 65.6l-0.32 0.384-105.408 103.04 26.624 148.928c4.224 23.936-4.992 48.32-23.808 62.784a55.168 55.168 0 0 1-35.904 12.992z" fill="#1890FF" p-id="5330"></path></svg>