<?xml version="1.0" standalone="no"?><!DOCTYPE svg PUBLIC "-//W3C//DTD SVG 1.1//EN" "http://www.w3.org/Graphics/SVG/1.1/DTD/svg11.dtd"><svg class="icon" width="24px" height="24.00px" viewBox="0 0 1048 1024" version="1.1" xmlns="http://www.w3.org/2000/svg"><path d="M884.571161 574.878595H986.037073c34.761054 0 62.938537 28.172488 62.938537 62.938537V961.061463c0 34.761054-28.177483 62.938537-62.938537 62.938537h-324.328273c-34.761054 0-62.938537-28.177483-62.938537-62.938537v-23.901658l285.800898-20.100371v-342.180839z" fill="#F0F0F0" /><path d="M899.876215 503.018771h-350.098108c-27.498146 0-50.051122 22.498029-50.051122 49.931239v349.258927c0 27.43321 22.552976 49.931239 50.051122 49.931239h350.098108c27.503141 0 50.051122-22.498029 50.051122-49.931239v-349.258927c0-27.43321-22.54798-49.931239-50.051122-49.931239z m-150.158361 249.391453v74.836917a25.025561 25.025561 0 0 1-50.051122 0V752.41522h-75.14162a24.96562 24.96562 0 0 1 0-49.93124h75.14162V627.637073a25.025561 25.025561 0 1 1 50.051122 0v74.836917h75.141619a24.96562 24.96562 0 1 1 0 49.931239H749.717854z" fill="#257ADC" /><path d="M499.726985 0m62.938537 0l324.328273 0q62.938537 0 62.938537 62.938537l0 323.244331q0 62.938537-62.938537 62.938537l-324.328273 0q-62.938537 0-62.938537-62.938537l0-323.244331q0-62.938537 62.938537-62.938537Z" fill="#979797" /><path d="M389.619512 952.140176H65.291239c-34.761054 0-62.938537-28.177483-62.938537-62.938537v-323.244332c0-34.761054 28.177483-62.938537 62.938537-62.938536H389.619512c34.761054 0 62.938537 28.177483 62.938537 62.938536v323.244332c0 34.761054-28.177483 62.938537-62.938537 62.938537z m0-59.941464a2.997073 2.997073 0 0 0 2.997073-2.997073v-323.244332a2.997073 2.997073 0 0 0-2.997073-2.997073H65.291239a2.997073 2.997073 0 0 0-2.997073 2.997073v323.244332a2.997073 2.997073 0 0 0 2.997073 2.997073H389.619512z" fill="#979797" /><path d="M452.563044 449.121405m-62.938537 0l-324.328273 0q-62.938537 0-62.938536-62.938537l0-323.244331q0-62.938537 62.938536-62.938537l324.328273 0q62.938537 0 62.938537 62.938537l0 323.244331q0 62.938537-62.938537 62.938537Z" fill="#979797" /></svg>