<?xml version="1.0" standalone="no"?><!DOCTYPE svg PUBLIC "-//W3C//DTD SVG 1.1//EN" "http://www.w3.org/Graphics/SVG/1.1/DTD/svg11.dtd"><svg class="icon" width="24px" height="24.00px" viewBox="0 0 1024 1024" version="1.1" xmlns="http://www.w3.org/2000/svg"><path d="M631 145.9c2.3-6.3 3.7-12.9 3.7-19.9 0-32.3-26.3-58.6-58.6-58.6H447.4c-32.3 0-58.6 26.3-58.6 58.6 0 7 1.4 13.7 3.7 19.9H138.4v74.7h746.7v-74.7H631z m-211.3-20c0-15.3 12.4-27.7 27.7-27.7h128.8c15.3 0 27.7 12.4 27.7 27.7 0 7.9-3.4 14.9-8.7 19.9H428.4c-5.3-4.9-8.7-12-8.7-19.9zM166.7 278.5v560c0 66.6 54.5 121 121 121h448c66.6 0 121-54.5 121-121v-560h-690z m195.4 473.1c0 14.5-11.9 26.4-26.4 26.4s-26.4-11.9-26.4-26.4V468.4c0-14.5 11.9-26.4 26.4-26.4s26.4 11.9 26.4 26.4v283.2z m164.5 0c0 14.5-11.9 26.4-26.4 26.4-14.5 0-26.4-11.9-26.4-26.4V468.4c0-14.5 11.9-26.4 26.4-26.4 14.5 0 26.4 11.9 26.4 26.4v283.2z m164.4 0c0 14.5-11.9 26.4-26.4 26.4s-26.4-11.9-26.4-26.4V468.4c0-14.5 11.9-26.4 26.4-26.4s26.4 11.9 26.4 26.4v283.2z" fill="#F0AA1D" /></svg>