<?xml version="1.0" standalone="no"?><!DOCTYPE svg PUBLIC "-//W3C//DTD SVG 1.1//EN" "http://www.w3.org/Graphics/SVG/1.1/DTD/svg11.dtd"><svg class="icon" width="24px" height="24.00px" viewBox="0 0 1024 1024" version="1.1" xmlns="http://www.w3.org/2000/svg"><path d="M874.666667 64H149.333333a42.666667 42.666667 0 0 0-42.666666 42.666667v853.333333a42.666667 42.666667 0 0 0 42.666666 42.666667h725.333334a42.666667 42.666667 0 0 0 42.666666-42.666667V106.666667a42.666667 42.666667 0 0 0-42.666666-42.666667z" fill="#A67C52" /><path d="M789.333333 896H234.666667a21.333333 21.333333 0 0 1-21.333334-21.333333V192a21.333333 21.333333 0 0 1 21.333334-21.333333h554.666666a21.333333 21.333333 0 0 1 21.333334 21.333333v682.666667a21.333333 21.333333 0 0 1-21.333334 21.333333z" fill="#E6E6E6" /><path d="M661.333333 512H362.666667a21.333333 21.333333 0 1 1 0-42.666667h298.666666a21.333333 21.333333 0 1 1 0 42.666667zM661.333333 384H362.666667a21.333333 21.333333 0 1 1 0-42.666667h298.666666a21.333333 21.333333 0 1 1 0 42.666667zM661.333333 640H362.666667a21.333333 21.333333 0 1 1 0-42.666667h298.666666a21.333333 21.333333 0 1 1 0 42.666667zM469.333333 768h-106.666666a21.333333 21.333333 0 1 1 0-42.666667h106.666666a21.333333 21.333333 0 1 1 0 42.666667z" fill="#B3B3B3" /><path d="M597.333333 106.666667a85.333333 85.333333 0 0 0-170.666666 0h-64a21.333333 21.333333 0 0 0-21.333334 21.333333v85.333333a21.333333 21.333333 0 0 0 21.333334 21.333334h298.666666a21.333333 21.333333 0 0 0 21.333334-21.333334V128a21.333333 21.333333 0 0 0-21.333334-21.333333h-64z" fill="#EFD358" /><path d="M512 106.666667m-21.333333 0a21.333333 21.333333 0 1 0 42.666666 0 21.333333 21.333333 0 1 0-42.666666 0Z" fill="#B29930" /></svg>