<?xml version="1.0" standalone="no"?><!DOCTYPE svg PUBLIC "-//W3C//DTD SVG 1.1//EN" "http://www.w3.org/Graphics/SVG/1.1/DTD/svg11.dtd"><svg t="1726891932924" class="icon" viewBox="0 0 1024 1024" version="1.1" xmlns="http://www.w3.org/2000/svg" p-id="17378" xmlns:xlink="http://www.w3.org/1999/xlink" width="24px" height="24.00px"><path d="M969.6768 341.6064V271.2576C969.6768 210.8416 934.8608 153.6 870.4 153.6h-345.0368l-13.312-35.4816C498.5856 92.6208 479.744 76.8 450.816 76.8H104.704C46.9504 76.8 0 124.8768 0 183.9616v656.128C0 899.072 46.9504 972.8 104.704 972.8h814.592C977.0496 972.8 1024 899.1232 1024 840.0896V437.4016c0-34.9184-23.1936-71.8848-54.3232-95.7952zM857.088 207.5648c22.3744 0 66.7136-2.7648 64.4608 63.6928v44.4928c-1.0752-0.0512 16.5376-0.1024-3.2768-0.1024h-301.2096l-57.4976-108.032h297.5232z m118.8864 645.632c0 23.6032-36.9152 70.5024-59.0336 70.5024H102.4c-22.0672 0-54.3744-46.8992-54.3744-70.5024V184.0128c0-39.424 34.56-58.7776 56.6784-58.7776h346.1632c4.7104 0 9.0112 2.56 11.264 6.912l114.3296 210.0224c5.632 10.5472 16.5888 17.1008 28.5184 17.152h296.8064c23.1424 0 74.24 54.9888 74.24 78.08v415.7952z" fill="#fac800" p-id="17379"></path><path d="M256 204.8a51.2512 51.2512 0 0 0 0 102.4 51.2512 51.2512 0 0 0 0-102.4" fill="#fac800" p-id="17380"></path></svg>