<?xml version="1.0" standalone="no"?><!DOCTYPE svg PUBLIC "-//W3C//DTD SVG 1.1//EN" "http://www.w3.org/Graphics/SVG/1.1/DTD/svg11.dtd"><svg t="1726905636739" class="icon" viewBox="0 0 1024 1024" version="1.1" xmlns="http://www.w3.org/2000/svg" p-id="7301" xmlns:xlink="http://www.w3.org/1999/xlink" width="24" height="24"><path d="M174.592 378.88c10.752-36.352 44.032-61.952 81.92-63.488h600.064c0-54.272-44.032-98.304-98.304-98.304H389.12l-36.864-67.584c-7.168-18.432-25.6-30.72-45.568-31.232H118.784C64.512 118.784 20.48 162.816 20.48 217.088v516.096c0 37.888 22.016 72.704 56.832 88.576l97.28-442.88zM844.8 778.24c5.632-10.24 9.728-20.992 11.776-32.256L844.8 778.24z" fill="#AEC9FF" p-id="7302"></path><path d="M915.968 364.544H305.664c-37.888 1.024-71.168 26.624-81.92 63.488l-104.448 477.696h688.128c37.888-1.536 71.168-27.136 81.92-63.488l108.544-344.064c22.016-64.512-20.48-133.632-81.92-133.632z m-202.24 251.904l-62.976 61.952 14.848 87.552c1.536 7.168-1.024 14.336-6.144 18.944-2.56 2.56-6.144 3.584-9.728 3.072-3.584 0-7.68-1.024-10.752-3.072l-77.824-40.96-77.824 41.472c-6.144 4.096-14.336 4.096-19.968 0-5.632-4.608-8.192-11.776-6.144-18.944l14.848-87.552-62.976-62.464c-7.68-5.632-9.728-15.872-4.096-23.552 3.072-4.608 8.192-7.168 13.824-7.168l87.552-12.8 39.424-79.872c3.072-8.704 12.8-13.312 21.504-10.24 4.608 1.536 8.704 5.632 10.24 10.24l39.424 79.872 87.552 12.8c9.216 0 16.896 7.68 16.896 17.408 0 5.12-3.072 10.24-7.68 13.312z" fill="#3366FF" p-id="7303"></path></svg>