<?xml version="1.0" standalone="no"?><!DOCTYPE svg PUBLIC "-//W3C//DTD SVG 1.1//EN" "http://www.w3.org/Graphics/SVG/1.1/DTD/svg11.dtd"><svg t="1726927011909" class="icon" viewBox="0 0 1128 1024" version="1.1" xmlns="http://www.w3.org/2000/svg" p-id="15907" xmlns:xlink="http://www.w3.org/1999/xlink" width="26.4375" height="24"><path d="M876.52737 507.676l-0.397-0.363c-0.275-0.275-0.55-0.55-0.848-0.815l-0.077-0.077-0.562-0.485-0.683-0.584-0.143-0.12-0.65-0.508-0.573-0.44-0.198-0.154-0.694-0.496-0.529-0.353-0.253-0.176-0.694-0.43-0.54-0.33-0.297-0.176-0.617-0.408-0.573-0.308-0.308-0.176-0.628-0.309-0.727-0.33-0.309-0.144-0.584-0.253-0.738-0.308-0.275-0.122-0.54-0.209-0.848-0.308-0.264-0.1-0.474-0.198-0.936-0.297-0.232-0.077-0.462-0.121-1.014-0.265h-0.198l-0.485-0.11-1.024-0.22h-0.187l-0.518-0.088-1.013-0.166h-0.166l-0.639-0.077-0.925-0.12h-0.154l-0.815-0.056h-5.255l-0.77 0.055h-0.078l-0.98 0.132-0.661 0.077h-0.088l-1.102 0.188-0.54 0.088h-0.11l-1.101 0.231-0.485 0.121h-0.143l-1.024 0.276-0.507 0.143h-0.154l-0.948 0.297-0.54 0.188-0.198 0.066-0.815 0.308-0.617 0.231-0.22 0.11-1.388 0.606-0.253 0.122-0.573 0.286-0.76 0.386-0.254 0.143-0.473 0.264-0.815 0.463-0.243 0.143-0.385 0.253h-0.066l-0.804 0.507-0.22 0.143-0.375 0.254-0.077 0.066-0.804 0.573-0.166 0.12-0.407 0.32-0.815 0.639-0.1 0.077-0.561 0.485-0.727 0.628c-0.43 0.385-0.849 0.793-1.256 1.2L629.56237 705.865a36.01 36.01 0 0 0 25.456 61.609 35.723 35.723 0 0 0 25.435-10.608l135.159-136.59 0.914 367.803A35.91 35.91 0 0 0 852.38037 1024h0.055a35.921 35.921 0 0 0 35.81-36.075l-0.968-368.156 135.18 133.022a35.928 35.928 0 0 0 50.506-51.112z" p-id="15908"></path><path d="M1024.03337 104.172h-459.34C502.66437 102.332 460.56337 0 360.20237 0H104.15137C46.43037 0 0.00037 47.708 0.00037 104.172v716.55a103.875 103.875 0 0 0 104.15 104.15h414.178v-70.927H121.73037c-25.335 0-50.748-18.782-50.748-46.408V361.15h986.625l0.088 76.006h69.177v399.858a102.685 102.685 0 0 0 1.31-16.336V203.333c-3.789-57.754-46.473-99.16-104.15-99.16z m34.148 187.647H72.08537V127.283c0-28.552 20.489-57.104 50.67-57.104H368.63037c57.665 1.31 90.711 98.984 196.459 101.848h442.432c38.94 1.179 49.955 18.253 50.671 68.12z" p-id="15909"></path></svg>