<?xml version="1.0" standalone="no"?><!DOCTYPE svg PUBLIC "-//W3C//DTD SVG 1.1//EN" "http://www.w3.org/Graphics/SVG/1.1/DTD/svg11.dtd"><svg t="1726926565781" class="icon" viewBox="0 0 1024 1024" version="1.1" xmlns="http://www.w3.org/2000/svg" p-id="14650" width="24" height="24" xmlns:xlink="http://www.w3.org/1999/xlink"><path d="M321.6 346.5h381c21.4 0 39-17.5 39-39 0-21.4-17.5-39-39-39h-381c-21.4 0-39 17.5-39 39 0 21.4 17.5 39 39 39zM282.6 488.5c0 21.4 17.5 39 39 39H606c21.4 0 39-17.5 39-39 0-21.4-17.5-39-39-39H321.6c-21.5 0-39 17.5-39 39z" p-id="14651"></path><path d="M908.5 113.9c0-27.6-22.4-50-50-50H166.8c-27.6 0-50 22.4-50 50v794.7c0 27.6 22.4 50 50 50h307.3c20.8-0.3 37.5-17.2 37.5-38s-16.7-37.7-37.5-38H192.8V139.9h639.7v400.8c0 21 17 38 38 38s38-17 38-38V113.9z" p-id="14652"></path><path d="M767.2 598.9c-15.8-15.8-41.8-15.8-57.6 0l-95.9 95.9c-15.9 15.9-15.9 41.8 0 57.6 15.8 15.8 41.8 15.8 57.6 0l26.3-26.3v188.1c0 22.4 18.3 40.7 40.7 40.7 22.4 0 40.7-18.3 40.7-40.7V726.1l26.3 26.3c15.8 15.8 41.8 15.8 57.6 0 15.8-15.8 15.8-41.8 0-57.6l-95.7-95.9z" p-id="14653"></path></svg>