<?xml version="1.0" standalone="no"?><!DOCTYPE svg PUBLIC "-//W3C//DTD SVG 1.1//EN" "http://www.w3.org/Graphics/SVG/1.1/DTD/svg11.dtd"><svg t="1726924308038" class="icon" viewBox="0 0 1024 1024" version="1.1" xmlns="http://www.w3.org/2000/svg" p-id="10517" xmlns:xlink="http://www.w3.org/1999/xlink" width="24" height="24"><path d="M511.622697 511.622697m-511.622697 0a511.622697 511.622697 0 1 0 1023.245394 0 511.622697 511.622697 0 1 0-1023.245394 0Z" fill="#F5AC29" p-id="10518"></path><path d="M430.879882 598.402358V501.812822c0-21.128961 21.883567-37.730287 65.6507-50.558585a24.147384 24.147384 0 0 1 12.073692-3.773028c56.595431-12.828298 83.761238-41.503316 81.497421-85.27045a79.988209 79.988209 0 0 0-81.497421-75.460575 129.792189 129.792189 0 0 0-93.571113 54.331614 102.626382 102.626382 0 0 1-69.423728 42.257922c-36.221076 0-55.840825-25.656595-58.104643-69.423729 9.809875-93.571113 83.761238-150.92115 221.099484-162.994841 150.92115 10.56448 226.381724 79.988209 236.191599 209.780398a199.970523 199.970523 0 0 1-174.313928 202.988946v34.711864a67.159912 67.159912 0 0 1-70.178334 70.178335 66.405306 66.405306 0 0 1-69.423729-70.178335z m69.423729 275.431098c-49.049374 0-75.460575-25.656595-75.460575-69.423729a75.460575 75.460575 0 1 1 154.694178 0c-3.773029 43.767133-30.18423 67.159912-79.233603 69.423729z" fill="#FFFFFF" p-id="10519"></path></svg>