<?xml version="1.0" standalone="no"?><!DOCTYPE svg PUBLIC "-//W3C//DTD SVG 1.1//EN" "http://www.w3.org/Graphics/SVG/1.1/DTD/svg11.dtd"><svg t="1727182879678" class="icon" viewBox="0 0 1024 1024" version="1.1" xmlns="http://www.w3.org/2000/svg" p-id="5459" width="16" height="16" xmlns:xlink="http://www.w3.org/1999/xlink"><path d="M0 1024h1024V0H0v1024z" fill="#FFFFFF" opacity=".01" p-id="5460"></path><path d="M956.586667 879.786667a32.298667 32.298667 0 0 0-3.84-7.68l-5.12-6.4-6.4-5.12a32.298667 32.298667 0 0 0-7.68-3.84 27.136 27.136 0 0 0-7.68-2.56c-2.986667-0.426667-5.546667-0.853333-8.533334-0.853334h-768c-2.986667 0-5.546667 0.426667-8.533333 0.853334-2.56 0.426667-5.12 1.28-7.68 2.56-2.56 0.853333-5.12 2.133333-7.68 3.84l-6.4 5.12-5.12 6.4c-1.706667 2.56-2.986667 5.12-3.84 7.68-1.28 2.56-2.133333 5.12-2.56 7.68-0.426667 2.986667-0.853333 5.546667-0.853333 8.533333s0.426667 5.546667 0.853333 8.533333c0.426667 2.56 1.28 5.12 2.56 7.68 0.853333 2.56 2.133333 5.12 3.84 7.68l5.12 6.4 6.4 5.12c2.56 1.706667 5.12 2.986667 7.68 3.84 2.56 1.28 5.12 2.133333 7.68 2.56 2.986667 0.426667 5.546667 0.853333 8.533333 0.853334h768c2.986667 0 5.546667-0.426667 8.533334-0.853334 2.56-0.426667 5.12-1.28 7.68-2.56 2.56-0.853333 5.12-2.133333 7.68-3.84l6.4-5.12 5.12-6.4c1.706667-2.56 2.986667-5.12 3.84-7.68 1.28-2.56 2.133333-5.12 2.56-7.68 0.426667-2.986667 0.853333-5.546667 0.853333-8.533333s-0.426667-5.546667-0.853333-8.533333a27.136 27.136 0 0 0-2.56-7.68zM226.133333 767.146667c2.986667 0.426667 5.546667 0.853333 8.533334 0.853333h156.16c5.546667 0 11.093333-1.28 16.213333-3.413333 5.546667-2.133333 9.813333-5.12 14.08-8.96L862.293333 314.026667c1.706667-2.133333 3.84-4.266667 5.12-6.4 1.706667-2.56 2.986667-5.12 3.84-7.68 1.28-2.56 2.133333-5.12 2.56-8.106667 0.426667-2.56 0.853333-5.12 0.853334-8.106667s-0.426667-5.546667-0.853334-8.533333a27.136 27.136 0 0 0-2.56-7.68 32.298667 32.298667 0 0 0-3.84-7.68l-5.12-6.4-155.733333-155.733333c-4.266667-3.84-8.533333-6.826667-14.08-8.96a42.453333 42.453333 0 0 0-16.213333-3.413334c-5.546667 0-11.093333 1.28-16.213334 3.413334-5.546667 2.133333-9.813333 5.12-14.08 8.96L204.373333 539.733333c-3.84 4.266667-6.826667 8.96-8.96 14.08-2.133333 5.12-3.413333 10.666667-3.413333 16.213334V725.333333c0 2.986667 0.426667 5.546667 0.853333 8.533334 0.426667 2.56 1.28 5.12 2.56 7.68 0.853333 2.56 2.133333 5.12 3.84 7.68l5.12 6.4 6.4 5.12c2.56 1.706667 5.12 2.986667 7.68 3.84 2.56 1.28 5.12 2.133333 7.68 2.56zM373.333333 682.666667H277.333333v-95.146667l398.933334-399.36 95.573333 95.573333L373.333333 682.666667z" fill="#606677" p-id="5461"></path></svg>